<svg width="1027" height="1105" viewBox="0 0 1027 1105" fill="none" xmlns="http://www.w3.org/2000/svg">
<circle cx="467" cy="552" r="300" fill="#C8C8C8" fill-opacity="0.48"/>
<path d="M625.941 803.348L623.299 800.004C595.633 764.235 577.036 733.067 567.506 706.5C557.976 679.933 554.575 655.011 557.301 631.734C560.027 608.457 566.161 584.146 575.703 558.802C581.377 543.455 584.982 527.781 586.519 511.78C587.909 495.594 586.341 479.483 581.814 463.446C577.473 447.263 569.505 431.835 557.908 417.162C543.522 398.959 526.773 386.548 507.66 379.927C488.547 373.306 468.977 372.025 448.95 376.085C428.923 380.144 410.18 389.073 392.721 402.871C377.49 414.908 365.312 429.663 356.187 447.134C347.062 464.605 343.121 483.864 344.364 504.909C345.607 525.954 354.147 548.023 369.983 571.114L299.773 626.602C276.304 593.852 263.119 560.368 260.216 526.15C257.499 491.786 263.701 458.972 278.824 427.708C294.133 396.297 316.832 368.701 346.921 344.921C379.611 319.085 413.167 303.127 447.589 297.046C482.196 290.817 515.048 293.822 546.144 306.06C577.426 318.151 604.516 338.684 627.416 367.659C643.563 388.091 655.012 409.067 661.761 430.589C668.696 451.964 671.451 473.776 670.025 496.026C668.785 518.128 663.955 540.654 655.537 563.601C647.266 586.735 642.685 607.857 641.795 626.967C640.759 645.891 644.104 664.823 651.83 683.762C659.556 702.701 672.334 723.834 690.165 747.159L692.807 750.502L625.941 803.348ZM791.955 940.099C778.211 950.962 762.526 955.361 744.902 953.297C727.278 951.233 713.035 943.329 702.172 929.584C691.309 915.839 686.91 900.155 688.974 882.531C691.038 864.906 698.943 850.663 712.687 839.8C726.432 828.938 742.116 824.538 759.74 826.603C777.365 828.667 791.608 836.571 802.471 850.316C809.664 859.417 813.948 869.61 815.323 880.895C816.883 892.033 815.691 902.934 811.746 913.596C807.839 923.925 801.242 932.76 791.955 940.099Z" fill="#1000C2"/>
</svg>
